ModelForces
version=1
nRows=4
nColumns=94
inDegrees=yes

This file contains the forces exerted on a model during a simulation.

A force is a generalized force, meaning that it can be either a force (N) or a torque (Nm).

Units are S.I. units (second, meters, Newtons, ...)
Angles are in degrees.

endheader 
time	addbrev_l	addlong_l	addmagDist_l	addmagIsch_l	addmagMid_l	addmagProx_l	bflh_l	bfsh_l	edl_l	ehl_l	fdl_l	fhl_l	gaslat_l	gasmed_l	glmax1_l	glmax2_l	glmax3_l	glmed1_l	glmed2_l	glmed3_l	glmin1_l	glmin2_l	glmin3_l	grac_l	iliacus_l	perbrev_l	perlong_l	piri_l	psoas_l	recfem_l	sart_l	semimem_l	semiten_l	soleus_l	tfl_l	tibant_l	tibpost_l	vasint_l	vaslat_l	vasmed_l	addbrev_r	addlong_r	addmagDist_r	addmagIsch_r	addmagMid_r	addmagProx_r	bflh_r	bfsh_r	edl_r	ehl_r	fdl_r	fhl_r	gaslat_r	gasmed_r	glmax1_r	glmax2_r	glmax3_r	glmed1_r	glmed2_r	glmed3_r	glmin1_r	glmin2_r	glmin3_r	grac_r	iliacus_r	perbrev_r	perlong_r	piri_r	psoas_r	recfem_r	sart_r	semimem_r	semiten_r	soleus_r	tfl_r	tibant_r	tibpost_r	vasint_r	vaslat_r	vasmed_r	lumbar_extension	lumbar_bending	lumbar_rotation	arm_flex_l	arm_add_l	arm_rot_l	arm_flex_r	arm_add_r	arm_rot_r	elbow_flex_l	elbow_flex_r	pro_sup_l	pro_sup_r	
          4.65000000	          2.08312133	          1.51691965	          6.43093913	          7.90408364	          3.64261415	          0.93867720	         16.71343821	        127.71033067	         73.41384048	          5.54006125	          0.92365223	          1.83365838	         24.72176752	         66.50111918	         12.22424338	         17.81674234	         11.87468206	        120.69337754	         47.46800033	         64.78079762	          7.53974792	         75.85818644	         63.56878241	          2.17262802	        318.81990806	         17.08982844	         17.42867375	        451.64982962	        540.28850841	        430.36625436	        106.89092092	         24.06728600	          5.91627595	          5.69240018	        183.45353478	        124.21332896	          3.11013723	         23.03993394	         67.56682182	         32.87734923	         16.05958378	         33.24997812	         11.69684614	          8.17591594	          8.88065308	          3.26057779	         20.92051494	          1.72969323	         51.41445698	         17.68112005	          5.50940640	         11.45732098	         70.19506837	         76.64380941	         15.29508947	         23.40313650	         11.42439788	        947.89682599	        242.11939142	         22.64041385	         96.68855533	         64.87646485	         22.81939286	         10.47820823	         34.45638138	        115.99000898	         20.06885724	          0.05343647	         64.09379582	         19.29050380	          4.37257673	         41.64812092	         14.24524890	         95.34476182	        195.79878044	        187.66520135	         26.16122921	         13.56655074	         64.38731392	         25.00653821	         -0.63246831	        -12.48011005	        -11.78101287	        -14.88619085	        -41.88350142	        -25.32023499	         22.67963363	        116.26773498	         13.65174517	         21.59594898	          6.45836443	         -1.45420259	         -0.14663648	
          4.66000000	          1.41057646	          0.33702454	          7.06899074	          8.75579918	          3.96013241	          0.57422300	         18.28256746	        120.77114629	        113.05378194	          7.03115576	          0.38012056	          1.31813778	         18.48099205	         48.94555385	         13.03530371	         19.33195033	         13.05473187	        240.41118375	         40.14117814	         54.66416052	         79.38795561	         63.80812334	         51.47018910	          1.92972851	        367.36392247	         21.96419269	         70.57073598	        336.56293982	        718.88503189	        364.69007513	         94.33669454	         25.83201490	          6.11867976	         15.81221074	        160.83338238	        133.93979679	          0.73034405	         25.24254221	         73.59773266	         35.87017350	         13.87710967	         26.99886849	         10.93649423	          7.48737043	          8.19199151	          2.24157233	         22.95667487	        254.07808897	         94.53144048	         17.95313763	          5.03960808	         10.31322379	        107.07191645	         76.66878674	         13.83037019	         20.88215261	         10.92247877	        818.42859753	        216.22879149	         27.81260577	         78.44914602	        114.19789772	        170.15866033	          8.82805516	        125.35251851	          9.59709251	        110.95319189	        158.63430813	         52.01249325	         34.05397803	         93.53349815	          0.16361622	         12.33538754	         69.87271967	        166.00439125	        217.14537393	         24.82464874	         12.17067501	         56.18696247	         21.85874008	        -16.59408054	         65.17737984	          4.93206511	         26.10191194	        -56.38072098	         19.13200440	         58.45154894	        125.03120594	         49.74660658	         18.47778916	          8.56707610	         -0.33710004	         -0.13878699	
          4.67000000	          8.75722453	          7.81746412	          7.71447217	          9.39073693	          4.69696825	          2.64227310	         19.57866464	         90.75045941	        129.24181730	          5.80105722	          0.21906619	          0.97609266	         11.60588240	         28.42113944	         13.57398663	         20.09902149	         13.94486760	        188.22983355	         31.86131459	         43.87221528	         61.13047773	         48.60348396	         38.34806609	          9.51496832	        357.36509208	         19.69449230	         64.32895711	        326.19172625	        744.49293524	        298.38901742	         72.35286727	         27.34810342	          6.42936782	         23.83974288	        127.49935601	        108.26981166	          0.18106069	         26.51027457	         76.85262210	         37.62262565	         11.14290748	         20.74522025	          9.60711861	          7.64538177	          7.02004819	          1.39232520	         24.42872465	        294.81347893	        130.03736593	         34.37345016	          5.62526798	          9.85933665	         85.00355802	        157.69663886	         12.16733413	         18.17244076	         11.44243539	       1011.27652188	        325.86374429	         20.55938876	        114.47400176	        170.77027036	        244.41222440	          7.44400805	         99.92174889	        116.21563682	          3.25473635	        169.41630115	         43.31980108	         19.20022581	         93.13546503	        493.93654821	         12.08892936	         43.54244610	        120.91889072	        228.79865290	         27.96981212	          9.20503631	         42.70594027	         16.61241713	          1.75448720	        123.53300953	          0.40365479	         56.70574167	        -12.65788988	         52.26385862	         83.75988402	        132.51432937	         29.33459199	        -11.39945566	          4.04049211	          1.60562538	         -1.27614678	
          4.68000000	          9.07447579	          6.89239176	          8.13981101	          9.63609637	          5.45778784	          2.54018084	         20.38722282	         75.67955462	        126.88126094	          0.73618462	          0.47314494	          2.25187149	          8.46582991	         19.88570220	         13.48834758	         19.87511876	         14.18638736	        125.04089241	         24.21705405	         33.75740004	         42.50058460	         34.70535836	         27.05748445	          8.85098043	        279.09530501	         17.20548248	         53.11161648	         33.27097627	        586.22541319	        363.57543160	         59.39743226	         29.23083840	          6.69910107	         32.31013411	         88.20341453	         89.65835107	          0.08554979	         26.01589559	         75.06402566	         37.01684939	          9.20400774	         16.59528892	          8.08775492	          7.48768033	          5.83653092	          0.91215811	         25.11869564	        244.54889412	        133.64375291	         31.48250652	          6.70830999	         11.40737936	         66.40825923	        213.77026291	         12.21529517	         16.84252747	         11.38153732	        961.88272716	        443.22424030	        213.67717600	         85.79948366	        131.48138845	        179.05424462	          6.23024778	         86.52342440	         46.16743242	         90.37419066	        156.87346481	         38.10597338	         22.69204594	         77.97370480	        385.17717854	         10.26147126	         25.03289604	         82.98619519	        247.94577644	         34.00809487	          6.48515917	         30.69833895	         11.91561676	          1.41350616	        109.80578857	         16.95130224	         34.65605952	         -9.51842689	         27.86686148	         97.15217964	        139.07089308	        -17.62943823	        -10.75155546	         -6.15834454	          1.04699558	         -2.73350484	
